<mxfile host="app.diagrams.net" modified="2025-03-19T10:00:00.000Z" agent="5.0 (Macintosh)" version="15.5.0" type="device">
  <diagram id="social-network-graph" name="Social Network">
    <mxGraphModel dx="1422" dy="798" grid="1" gridSize="10" guides="1" tooltips="1" connect="1" arrows="1" fold="1" page="1" pageScale="1" pageWidth="827" pageHeight="1169" math="0" shadow="0">
      <root>
        <mxCell id="0" />
        <mxCell id="1" parent="0" />
        
        <!-- Users (Nodes) -->
        <mxCell id="user-a" value="User " style="ellipse;whiteSpace=wrap;html=1;fillColor=#dae8fc;strokeColor=#6c8ebf;" vertex="1" parent="1">
          <mxGeometry x="200" y="200" width="80" height="80" as="geometry" />
        </mxCell>
        <mxCell id="user-b" value="User B" style="ellipse;whiteSpace=wrap;html=1;fillColor=#d5e8d4;strokeColor=#82b366;" vertex="1" parent="1">
          <mxGeometry x="400" y="120" width="80" height="80" as="geometry" />
        </mxCell>
        <mxCell id="user-c" value="User C" style="ellipse;whiteSpace=wrap;html=1;fillColor=#ffe6cc;strokeColor=#d79b00;" vertex="1" parent="1">
          <mxGeometry x="500" y="280" width="80" height="80" as="geometry" />
        </mxCell>
        <mxCell id="user-d" value="User D" style="ellipse;whiteSpace=wrap;html=1;fillColor=#fff2cc;strokeColor=#d6b656;" vertex="1" parent="1">
          <mxGeometry x="300" y="350" width="80" height="80" as="geometry" />
        </mxCell>
        <mxCell id="user-e" value="User E" style="ellipse;whiteSpace=wrap;html=1;fillColor=#f8cecc;strokeColor=#b85450;" vertex="1" parent="1">
          <mxGeometry x="120" y="350" width="80" height="80" as="geometry" />
        </mxCell>
        
        <!-- Follow Relationships (Edges) -->
        <mxCell id="a-follows-b" value="follows" style="edgeStyle=orthogonalEdgeStyle;rounded=0;orthogonalLoop=1;jettySize=auto;html=1;exitX=1;exitY=0.5;exitDx=0;exitDy=0;entryX=0;entryY=0.5;entryDx=0;entryDy=0;" edge="1" parent="1" source="user-a" target="user-b">
          <mxGeometry relative="1" as="geometry" />
        </mxCell>
        <mxCell id="b-follows-c" value="follows" style="edgeStyle=orthogonalEdgeStyle;rounded=0;orthogonalLoop=1;jettySize=auto;html=1;exitX=0.5;exitY=1;exitDx=0;exitDy=0;entryX=0;entryY=0.5;entryDx=0;entryDy=0;" edge="1" parent="1" source="user-b" target="user-c">
          <mxGeometry relative="1" as="geometry" />
        </mxCell>
        <mxCell id="c-follows-b" value="follows" style="edgeStyle=orthogonalEdgeStyle;rounded=0;orthogonalLoop=1;jettySize=auto;html=1;exitX=0.5;exitY=0;exitDx=0;exitDy=0;entryX=1;entryY=0.5;entryDx=0;entryDy=0;" edge="1" parent="1" source="user-c" target="user-b">
          <mxGeometry relative="1" as="geometry" />
        </mxCell>
        <mxCell id="d-follows-a" value="follows" style="edgeStyle=orthogonalEdgeStyle;rounded=0;orthogonalLoop=1;jettySize=auto;html=1;exitX=0.5;exitY=0;exitDx=0;exitDy=0;entryX=0.5;entryY=1;entryDx=0;entryDy=0;" edge="1" parent="1" source="user-d" target="user-a">
          <mxGeometry relative="1" as="geometry" />
        </mxCell>
        <mxCell id="d-follows-c" value="follows" style="edgeStyle=orthogonalEdgeStyle;rounded=0;orthogonalLoop=1;jettySize=auto;html=1;exitX=1;exitY=0.5;exitDx=0;exitDy=0;entryX=0;entryY=0.5;entryDx=0;entryDy=0;" edge="1" parent="1" source="user-d" target="user-c">
          <mxGeometry relative="1" as="geometry" />
        </mxCell>
        <mxCell id="e-follows-a" value="follows" style="edgeStyle=orthogonalEdgeStyle;rounded=0;orthogonalLoop=1;jettySize=auto;html=1;exitX=0.5;exitY=0;exitDx=0;exitDy=0;entryX=0;entryY=0.5;entryDx=0;entryDy=0;" edge="1" parent="1" source="user-e" target="user-a">
          <mxGeometry relative="1" as="geometry" />
        </mxCell>
        <mxCell id="e-follows-d" value="follows" style="edgeStyle=orthogonalEdgeStyle;rounded=0;orthogonalLoop=1;jettySize=auto;html=1;exitX=1;exitY=0.5;exitDx=0;exitDy=0;entryX=0;entryY=0.5;entryDx=0;entryDy=0;" edge="1" parent="1" source="user-e" target="user-d">
          <mxGeometry relative="1" as="geometry" />
        </mxCell>
        <mxCell id="a-follows-d" value="follows" style="edgeStyle=orthogonalEdgeStyle;rounded=0;orthogonalLoop=1;jettySize=auto;html=1;exitX=0.5;exitY=1;exitDx=0;exitDy=0;entryX=0.5;entryY=0;entryDx=0;entryDy=0;" edge="1" parent="1" source="user-a" target="user-d">
          <mxGeometry relative="1" as="geometry" />
        </mxCell>
      </root>
    </mxGraphModel>
  </diagram>
</mxfile>